<?xml version="1.0" encoding="UTF-8" standalone="no"?>
<!-- Created with Inkscape (http://www.inkscape.org/) -->

<svg
   xmlns:dc="http://purl.org/dc/elements/1.1/"
   xmlns:cc="http://creativecommons.org/ns#"
   xmlns:rdf="http://www.w3.org/1999/02/22-rdf-syntax-ns#"
   xmlns:svg="http://www.w3.org/2000/svg"
   xmlns="http://www.w3.org/2000/svg"
   xmlns:sodipodi="http://sodipodi.sourceforge.net/DTD/sodipodi-0.dtd"
   xmlns:inkscape="http://www.inkscape.org/namespaces/inkscape"
   width="210mm"
   height="92mm"
   viewBox="0 0 744.09449 325.98425"
   id="svg2"
   version="1.1"
   inkscape:version="0.91 r13725"
   sodipodi:docname="qr_code_position.svg">
  <defs
     id="defs4">
    <marker
       inkscape:stockid="Arrow1Lend"
       orient="auto"
       refY="0"
       refX="0"
       id="marker5676"
       style="overflow:visible"
       inkscape:isstock="true">
      <path
         id="path5678"
         d="M 0,0 5,-5 -12.5,0 5,5 0,0 Z"
         style="fill:#333333;fill-opacity:1;fill-rule:evenodd;stroke:#333333;stroke-width:1pt;stroke-opacity:1"
         transform="matrix(-0.8,0,0,-0.8,-10,0)"
         inkscape:connector-curvature="0" />
    </marker>
    <marker
       inkscape:stockid="Arrow1Lstart"
       orient="auto"
       refY="0"
       refX="0"
       id="marker5612"
       style="overflow:visible"
       inkscape:isstock="true">
      <path
         id="path5614"
         d="M 0,0 5,-5 -12.5,0 5,5 0,0 Z"
         style="fill:#333333;fill-opacity:1;fill-rule:evenodd;stroke:#333333;stroke-width:1pt;stroke-opacity:1"
         transform="matrix(0.8,0,0,0.8,10,0)"
         inkscape:connector-curvature="0" />
    </marker>
    <marker
       inkscape:stockid="Arrow1Lend"
       orient="auto"
       refY="0"
       refX="0"
       id="marker4716"
       style="overflow:visible"
       inkscape:isstock="true">
      <path
         id="path4718"
         d="M 0,0 5,-5 -12.5,0 5,5 0,0 Z"
         style="fill:#333333;fill-opacity:1;fill-rule:evenodd;stroke:#333333;stroke-width:1pt;stroke-opacity:1"
         transform="matrix(-0.8,0,0,-0.8,-10,0)"
         inkscape:connector-curvature="0" />
    </marker>
    <marker
       inkscape:stockid="Arrow1Lstart"
       orient="auto"
       refY="0"
       refX="0"
       id="marker4670"
       style="overflow:visible"
       inkscape:isstock="true">
      <path
         id="path4672"
         d="M 0,0 5,-5 -12.5,0 5,5 0,0 Z"
         style="fill:#333333;fill-opacity:1;fill-rule:evenodd;stroke:#333333;stroke-width:1pt;stroke-opacity:1"
         transform="matrix(0.8,0,0,0.8,10,0)"
         inkscape:connector-curvature="0" />
    </marker>
    <marker
       inkscape:stockid="Arrow1Lend"
       orient="auto"
       refY="0"
       refX="0"
       id="Arrow1Lend"
       style="overflow:visible"
       inkscape:isstock="true">
      <path
         id="path4241"
         d="M 0,0 5,-5 -12.5,0 5,5 0,0 Z"
         style="fill:#8f8f8f;fill-opacity:1;fill-rule:evenodd;stroke:#8f8f8f;stroke-width:1pt;stroke-opacity:1"
         transform="matrix(-0.8,0,0,-0.8,-10,0)"
         inkscape:connector-curvature="0" />
    </marker>
    <marker
       inkscape:stockid="Arrow1Lstart"
       orient="auto"
       refY="0"
       refX="0"
       id="Arrow1Lstart"
       style="overflow:visible"
       inkscape:isstock="true">
      <path
         id="path4238"
         d="M 0,0 5,-5 -12.5,0 5,5 0,0 Z"
         style="fill:#8f8f8f;fill-opacity:1;fill-rule:evenodd;stroke:#8f8f8f;stroke-width:1pt;stroke-opacity:1"
         transform="matrix(0.8,0,0,0.8,10,0)"
         inkscape:connector-curvature="0" />
    </marker>
    <marker
       inkscape:stockid="Arrow2Lend"
       orient="auto"
       refY="0"
       refX="0"
       id="Arrow2Lend"
       style="overflow:visible"
       inkscape:isstock="true">
      <path
         id="path4259"
         style="fill:#8f8f8f;fill-opacity:1;fill-rule:evenodd;stroke:#8f8f8f;stroke-width:0.625;stroke-linejoin:round;stroke-opacity:1"
         d="M 8.7185878,4.0337352 -2.2072895,0.01601326 8.7185884,-4.0017078 c -1.7454984,2.3720609 -1.7354408,5.6174519 -6e-7,8.035443 z"
         transform="matrix(-1.1,0,0,-1.1,-1.1,0)"
         inkscape:connector-curvature="0" />
    </marker>
    <marker
       inkscape:stockid="Arrow1Mend"
       orient="auto"
       refY="0"
       refX="0"
       id="Arrow1Mend"
       style="overflow:visible"
       inkscape:isstock="true">
      <path
         id="path4247"
         d="M 0,0 5,-5 -12.5,0 5,5 0,0 Z"
         style="fill:#8f8f8f;fill-opacity:1;fill-rule:evenodd;stroke:#8f8f8f;stroke-width:1pt;stroke-opacity:1"
         transform="matrix(-0.4,0,0,-0.4,-4,0)"
         inkscape:connector-curvature="0" />
    </marker>
  </defs>
  <sodipodi:namedview
     id="base"
     pagecolor="#333333"
     bordercolor="#666666"
     borderopacity="1.0"
     inkscape:pageopacity="0"
     inkscape:pageshadow="2"
     inkscape:zoom="0.63096147"
     inkscape:cx="372.04724"
     inkscape:cy="399.39048"
     inkscape:document-units="px"
     inkscape:current-layer="layer1"
     showgrid="false"
     inkscape:window-width="1440"
     inkscape:window-height="852"
     inkscape:window-x="0"
     inkscape:window-y="0"
     inkscape:window-maximized="1" />
  <metadata
     id="metadata7">
    <rdf:RDF>
      <cc:Work
         rdf:about="">
        <dc:format>image/svg+xml</dc:format>
        <dc:type
           rdf:resource="http://purl.org/dc/dcmitype/StillImage" />
        <dc:title></dc:title>
      </cc:Work>
    </rdf:RDF>
  </metadata>
  <g
     inkscape:label="Calque 1"
     inkscape:groupmode="layer"
     id="layer1"
     transform="translate(0,-726.37795)">
    <rect
       style="opacity:1;fill:#777777;fill-opacity:1;stroke:#000000;stroke-width:1;stroke-linejoin:miter;stroke-miterlimit:4;stroke-dasharray:none;stroke-dashoffset:0;stroke-opacity:1"
       id="rect4136"
       width="739.74115"
       height="325.12372"
       x="2.6473348"
       y="727.06873" />
    <path
       style="fill:#333333;fill-opacity:1;fill-rule:evenodd;stroke:#333333;stroke-width:1;stroke-linecap:butt;stroke-linejoin:miter;stroke-miterlimit:4;stroke-dasharray:none;stroke-dashoffset:0;stroke-opacity:1;marker-start:url(#marker4670);marker-end:url(#marker4716)"
       d="m 500.28769,976.82635 -498.3315615,0"
       id="path4140"
       inkscape:connector-curvature="0" />
    <path
       style="fill:#333333;fill-opacity:1;fill-rule:evenodd;stroke:#333333;stroke-width:1;stroke-linecap:butt;stroke-linejoin:miter;stroke-miterlimit:4;stroke-dasharray:none;stroke-dashoffset:0;stroke-opacity:1;marker-start:url(#marker5612);marker-end:url(#marker5676)"
       d="m 355.83957,787.19792 0,260.22218"
       id="path4142"
       inkscape:connector-curvature="0" />
    <path
       style="fill:#000000"
       d="m 502.45783,875.19412 0,-14.66654 14.66653,0 14.66653,0 0,14.66654 0,14.6665 -14.66653,0 -14.66653,0 0,-14.6665 z m 25.14262,0 0,-10.47611 -10.47609,0 -10.47609,0 0,10.47611 0,10.4761 10.47609,0 10.47609,0 0,-10.4761 z m -16.76174,0 0,-6.2857 6.28565,0 6.28566,0 0,6.2857 0,6.2856 -6.28566,0 -6.28565,0 0,-6.2856 z m 25.14261,4.1904 0,-10.4761 4.19044,0 4.19044,0 0,-2.09519 0,-2.09522 -4.19044,0 -4.19044,0 0,-10.47609 0,-10.47609 10.4761,0 10.47609,0 0,2.09522 c 0,1.99544 -0.0998,2.09522 -2.09522,2.09522 l -2.09522,0 0,4.19043 0,4.19044 6.28565,0 6.28566,0 0,-2.09522 c 0,-1.99544 -0.0998,-2.09522 -2.09522,-2.09522 -1.99544,0 -2.09522,-0.0998 -2.09522,-2.09521 0,-1.99545 0.0998,-2.09522 2.09522,-2.09522 1.99544,0 2.09522,-0.0998 2.09522,-2.09522 0,-1.99544 0.0998,-2.09522 2.09522,-2.09522 1.99544,0 2.09521,-0.0998 2.09521,-2.09522 l 0,-2.09521 -4.19043,0 -4.19044,0 0,-2.09522 c 0,-1.99545 -0.0998,-2.09522 -2.09522,-2.09522 -1.99544,0 -2.09521,0.0998 -2.09521,2.09522 0,1.99544 -0.0998,2.09522 -2.09522,2.09522 l -2.09522,0 0,-4.19044 0,-4.19044 2.09522,0 c 1.99544,0 2.09522,-0.0998 2.09522,-2.09521 0,-1.99545 -0.0998,-2.09522 -2.09522,-2.09522 -1.99545,0 -2.09522,-0.0998 -2.09522,-2.09522 0,-1.99545 -0.0998,-2.09522 -2.09522,-2.09522 l -2.09522,0 0,4.19044 0,4.19043 -2.09521,0 -2.09522,0 0,-4.19043 0,-4.19044 -2.09522,0 -2.09522,0 0,4.19044 0,4.19043 -2.09522,0 c -1.99544,0 -2.09522,0.0998 -2.09522,2.09522 l 0,2.09522 6.28566,0 6.28565,0 0,2.09522 0,2.09522 -10.47609,0 -10.47609,0 0,-2.09522 c 0,-1.99545 -0.0998,-2.09522 -2.09522,-2.09522 -1.99544,0 -2.09521,0.0998 -2.09521,2.09522 0,1.99544 -0.0998,2.09522 -2.09522,2.09522 -1.99545,0 -2.09522,0.0998 -2.09522,2.09521 l 0,2.09522 6.28565,0 6.28566,0 0,2.09522 0,2.09522 -4.19044,0 -4.19043,0 0,4.19043 0,4.19044 -2.09522,0 c -1.99545,0 -2.09522,-0.0998 -2.09522,-2.09522 0,-1.99544 -0.0998,-2.09522 -2.09522,-2.09522 -1.99544,0 -2.09522,0.0998 -2.09522,2.09522 0,1.99545 -0.0998,2.09522 -2.09521,2.09522 l -2.09522,0 0,-6.28565 0,-6.28566 -2.09522,0 -2.09522,0 0,6.28566 0,6.28565 -2.09522,0 -2.09522,0 0,-18.85696 0,-18.85697 10.4761,0 10.47609,0 0,2.09522 c 0,1.99545 0.0998,2.09522 2.09521,2.09522 1.99545,0 2.09522,-0.0998 2.09522,-2.09522 l 0,-2.09522 6.28566,0 6.28565,0 0,-2.09521 c 0,-1.99545 -0.0998,-2.09522 -2.09522,-2.09522 l -2.09522,0 0,-4.19044 0,-4.19043 2.09522,0 c 1.99545,0 2.09522,-0.0998 2.09522,-2.09522 0,-1.99545 -0.0998,-2.09522 -2.09522,-2.09522 -1.99544,0 -2.09522,-0.0998 -2.09522,-2.09522 l 0,-2.09522 6.28566,0 6.28565,0 0,2.09522 c 0,1.99545 -0.0998,2.09522 -2.09521,2.09522 l -2.09522,0 0,4.19044 0,4.19043 2.09522,0 c 1.99544,0 2.09521,-0.0998 2.09521,-2.09522 l 0,-2.09521 4.19044,0 4.19044,0 0,-2.09522 c 0,-1.99545 -0.0998,-2.09522 -2.09522,-2.09522 l -2.09522,0 0,-4.19044 0,-4.19043 2.09522,0 c 1.99544,0 2.09522,-0.0998 2.09522,-2.09522 0,-1.99545 -0.0998,-2.09522 -2.09522,-2.09522 -1.99545,0 -2.09522,-0.0998 -2.09522,-2.09522 l 0,-2.09522 4.19044,0 4.19043,0 0,2.09522 0,2.09522 4.19044,0 4.19043,0 0,-2.09522 c 0,-1.99544 0.0998,-2.09522 2.09522,-2.09522 l 2.09522,0 0,4.19044 0,4.19044 -4.19044,0 -4.19043,0 0,2.09522 c 0,1.99544 0.0998,2.09521 2.09522,2.09521 1.99544,0 2.09521,0.0998 2.09521,2.09522 0,1.99545 0.0998,2.09522 2.09522,2.09522 1.99545,0 2.09522,0.0998 2.09522,2.09522 0,1.99544 -0.0998,2.09522 -2.09522,2.09522 -1.99544,0 -2.09522,0.0998 -2.09522,2.09521 0,1.99545 0.0998,2.09522 2.09522,2.09522 l 2.09522,0 0,4.19044 0,4.19043 2.09522,0 c 1.99544,0 2.09522,0.0998 2.09522,2.09522 0,1.99545 -0.0998,2.09522 -2.09522,2.09522 -1.99544,0 -2.09522,-0.0998 -2.09522,-2.09522 0,-1.99544 -0.0998,-2.09522 -2.09522,-2.09522 l -2.09522,0 0,-4.19043 0,-4.19044 -2.09521,0 -2.09522,0 0,4.19044 0,4.19043 -2.09522,0 -2.09522,0 0,-6.28565 0,-6.28565 -2.09522,0 -2.09521,0 0,4.19043 0,4.19044 -2.09522,0 -2.09522,0 0,4.19043 0,4.19044 4.19044,0 4.19043,0 0,2.09522 0,2.09522 4.19044,0 4.19043,0 0,2.09522 0,2.09521 -4.19043,0 -4.19044,0 0,2.09522 0,2.09522 8.38087,0 8.38088,0 0,-2.09522 c 0,-1.99544 0.0998,-2.09522 2.09522,-2.09522 l 2.09521,0 0,-6.28565 0,-6.28566 2.09522,0 2.09522,0 0,4.19044 0,4.19044 2.09522,0 2.09522,0 0,-4.19044 0,-4.19044 2.09521,0 2.09522,0 0,4.19044 0,4.19044 2.09522,0 2.09522,0 0,-4.19044 0,-4.19044 2.09522,0 2.09522,0 0,4.19044 0,4.19044 2.09521,0 2.09522,0 0,6.28565 0,6.28566 -6.28565,0 -6.28566,0 0,2.09521 0,2.09522 6.28566,0 6.28565,0 0,2.09522 0,2.09522 -6.28565,0 -6.28566,0 0,-2.09522 c 0,-1.99544 -0.0998,-2.09522 -2.09522,-2.09522 -1.99544,0 -2.09521,-0.0998 -2.09521,-2.09522 0,-1.99544 -0.0998,-2.09521 -2.09522,-2.09521 l -2.09522,0 0,4.19043 0,4.19044 2.09522,0 c 1.99544,0 2.09522,0.0998 2.09522,2.09522 l 0,2.09521 8.38087,0 8.38087,0 0,2.09522 c 0,1.99545 -0.0998,2.09522 -2.09522,2.09522 -1.99544,0 -2.09521,0.0998 -2.09521,2.09522 0,1.99544 0.0998,2.09522 2.09521,2.09522 1.99545,0 2.09522,0.0998 2.09522,2.09522 0,1.99544 -0.0998,2.09521 -2.09522,2.09521 -1.99544,0 -2.09521,0.0998 -2.09521,2.09522 0,1.99549 0.0998,2.09519 2.09521,2.09519 l 2.09522,0 0,10.4761 0,10.4761 -12.57131,0 -12.57131,0 0,-2.0952 c 0,-1.9955 -0.0998,-2.0952 -2.09521,-2.0952 -1.99545,0 -2.09522,0.1 -2.09522,2.0952 0,1.9954 -0.0998,2.0952 -2.09522,2.0952 -1.99544,0 -2.09522,-0.1 -2.09522,-2.0952 l 0,-2.0952 -6.28565,0 -6.28566,0 0,-2.0952 c 0,-1.9955 0.0998,-2.0953 2.09522,-2.0953 1.99544,0 2.09522,-0.1 2.09522,-2.0952 0,-1.9954 0.0998,-2.0952 2.09522,-2.0952 1.99544,0 2.09521,-0.1 2.09521,-2.0952 l 0,-2.0952 -4.19043,0 -4.19044,0 0,-2.0953 c 0,-1.9954 -0.0998,-2.0952 -2.09522,-2.0952 -1.99544,0 -2.09521,0.1 -2.09521,2.0952 0,1.9955 -0.0998,2.0953 -2.09522,2.0953 l -2.09522,0 0,-4.1905 0,-4.19041 2.09522,0 c 1.99544,0 2.09522,-0.0998 2.09522,-2.09521 0,-1.99545 -0.0998,-2.09522 -2.09522,-2.09522 -1.99545,0 -2.09522,-0.0998 -2.09522,-2.09522 0,-1.99544 -0.0998,-2.09522 -2.09522,-2.09522 l -2.09522,0 0,10.47609 0,10.47609 4.19044,0 4.19044,0 0,2.0952 c 0,1.9955 -0.0998,2.0952 -2.09522,2.0952 l -2.09522,0 0,4.1905 0,4.1904 -2.09522,0 c -1.99544,0 -2.09522,-0.1 -2.09522,-2.0952 0,-1.9955 -0.0998,-2.0952 -2.09521,-2.0952 -1.99545,0 -2.09522,0.1 -2.09522,2.0952 l 0,2.0952 -4.19044,0 -4.19044,0 0,-10.4761 z m 41.90437,4.1905 c 0,-1.9955 0.0998,-2.0953 2.09522,-2.0953 1.99544,0 2.09521,0.1 2.09521,2.0953 0,1.9954 0.0998,2.0952 2.09522,2.0952 1.99545,0 2.09522,-0.1 2.09522,-2.0952 0,-1.9955 0.0998,-2.0953 2.09522,-2.0953 1.99544,0 2.09522,0.1 2.09522,2.0953 l 0,2.0952 6.28565,0 6.28566,0 0,-4.1905 0,-4.1904 -2.09522,0 c -1.99545,0 -2.09522,0.1 -2.09522,2.0952 0,1.9955 -0.0998,2.0952 -2.09522,2.0952 l -2.09522,0 0,-4.1904 0,-4.1904 -2.09522,0 c -1.99544,0 -2.09521,0.1 -2.09521,2.0952 0,1.9954 -0.0998,2.0952 -2.09522,2.0952 -1.99545,0 -2.09522,-0.1 -2.09522,-2.0952 0,-1.9955 -0.0998,-2.0952 -2.09522,-2.0952 -1.99544,0 -2.09522,0.1 -2.09522,2.0952 l 0,2.0952 -4.19043,0 -4.19044,0 0,4.1904 0,4.1905 2.09522,0 c 1.99544,0 2.09522,-0.1 2.09522,-2.0952 z m -29.33306,-4.1905 c 0,-1.9954 -0.0998,-2.0952 -2.09521,-2.0952 -1.99545,0 -2.09522,0.1 -2.09522,2.0952 0,1.9955 0.0998,2.0952 2.09522,2.0952 1.99544,0 2.09521,-0.1 2.09521,-2.0952 z m 54.47568,-8.3809 c 0,-1.9954 -0.0998,-2.0952 -2.09522,-2.0952 l -2.09522,0 0,-4.19041 0,-4.19043 -4.19044,0 -4.19043,0 0,4.19043 0,4.19041 4.19043,0 4.19044,0 0,2.0952 c 0,1.9955 0.0998,2.0953 2.09522,2.0953 1.99544,0 2.09522,-0.1 2.09522,-2.0953 z m -33.5235,-6.28561 0,-4.19043 -2.09521,0 c -1.99545,0 -2.09522,0.0998 -2.09522,2.09522 0,1.99544 -0.0998,2.09521 -2.09522,2.09521 -1.99544,0 -2.09522,0.0998 -2.09522,2.09522 l 0,2.09519 4.19044,0 4.19043,0 0,-4.19041 z m 16.76175,-2.09521 0,-6.28566 -6.28565,0 -6.28566,0 0,6.28566 0,6.28562 6.28566,0 6.28565,0 0,-6.28562 z m -8.38087,0 c 0,-1.99545 0.0998,-2.09522 2.09522,-2.09522 1.99544,0 2.09521,0.0998 2.09521,2.09522 0,1.99544 -0.0998,2.09521 -2.09521,2.09521 -1.99545,0 -2.09522,-0.0998 -2.09522,-2.09521 z m -29.33306,-8.38088 0,-2.09522 -4.19043,0 -4.19044,0 0,2.09522 0,2.09522 4.19044,0 4.19043,0 0,-2.09522 z m 33.52349,-12.57131 c 0,-1.99544 0.0998,-2.09521 2.09522,-2.09521 1.99545,0 2.09522,-0.0998 2.09522,-2.09522 0,-1.99545 0.0998,-2.09522 2.09522,-2.09522 1.99544,0 2.09522,0.0998 2.09522,2.09522 0,1.99544 0.0998,2.09522 2.09521,2.09522 1.99545,0 2.09522,-0.0998 2.09522,-2.09522 0,-1.99545 0.0998,-2.09522 2.09522,-2.09522 1.99544,0 2.09522,-0.0998 2.09522,-2.09522 l 0,-2.09522 -8.38087,0 -8.38088,0 0,4.19044 0,4.19044 -4.19043,0 -4.19044,0 0,2.09521 0,2.09522 4.19044,0 4.19043,0 0,-2.09522 z m -71.23741,-4.19043 c 0,-1.99545 0.0998,-2.09522 2.09522,-2.09522 1.99544,0 2.09521,-0.0998 2.09521,-2.09522 l 0,-2.09522 -4.19043,0 -4.19044,0 0,4.19044 0,4.19044 2.09522,0 c 1.99545,0 2.09522,-0.0998 2.09522,-2.09522 z m 20.95218,-4.19044 c 0,-1.99544 0.0998,-2.09522 2.09522,-2.09522 l 2.09521,0 0,-4.19043 0,-4.19044 -4.19043,0 -4.19044,0 0,2.09522 c 0,1.99545 0.0998,2.09522 2.09522,2.09522 1.99545,0 2.09522,0.0998 2.09522,2.09522 0,1.99544 -0.0998,2.09521 -2.09522,2.09521 -1.99545,0 -2.09522,0.0998 -2.09522,2.09522 0,1.99545 0.0998,2.09522 2.09522,2.09522 1.99545,0 2.09522,-0.0998 2.09522,-2.09522 z m -20.95218,-8.38087 c 0,-1.99545 -0.0998,-2.09522 -2.09522,-2.09522 -1.99545,0 -2.09522,0.0998 -2.09522,2.09522 0,1.99545 0.0998,2.09522 2.09522,2.09522 1.99545,0 2.09522,-0.0998 2.09522,-2.09522 z m 12.57131,0 c 0,-1.99545 -0.0998,-2.09522 -2.09522,-2.09522 -1.99545,0 -2.09522,0.0998 -2.09522,2.09522 0,1.99545 0.0998,2.09522 2.09522,2.09522 1.99544,0 2.09522,-0.0998 2.09522,-2.09522 z m 25.14261,-4.19044 c 0,-1.99544 -0.0998,-2.09522 -2.09521,-2.09522 -1.99545,0 -2.09522,0.0998 -2.09522,2.09522 0,1.99545 0.0998,2.09522 2.09522,2.09522 1.99544,0 2.09521,-0.0998 2.09521,-2.09522 z m -4.19043,-8.38087 c 0,-1.99545 -0.0998,-2.09522 -2.09522,-2.09522 -1.99545,0 -2.09522,0.0998 -2.09522,2.09522 0,1.99545 0.0998,2.09522 2.09522,2.09522 1.99545,0 2.09522,-0.0998 2.09522,-2.09522 z m 8.38087,0 c 0,-1.99545 -0.0998,-2.09522 -2.09522,-2.09522 -1.99544,0 -2.09522,0.0998 -2.09522,2.09522 0,1.99545 0.0998,2.09522 2.09522,2.09522 1.99545,0 2.09522,-0.0998 2.09522,-2.09522 z m 16.76174,-8.38087 0,-2.09522 -4.19043,0 -4.19044,0 0,2.09522 0,2.09522 4.19044,0 4.19043,0 0,-2.09522 z m -8.38087,-8.38087 c 0,-1.99545 -0.0998,-2.09522 -2.09522,-2.09522 -1.99544,0 -2.09521,0.0998 -2.09521,2.09522 0,1.99544 0.0998,2.09521 2.09521,2.09521 1.99545,0 2.09522,-0.0998 2.09522,-2.09521 z m -33.52349,58.6661 c 0,-1.99544 0.0998,-2.09522 2.09522,-2.09522 1.99545,0 2.09522,0.0998 2.09522,2.09522 0,1.99545 -0.0998,2.09522 -2.09522,2.09522 -1.99545,0 -2.09522,-0.0998 -2.09522,-2.09522 z m -25.14262,-54.47567 0,-14.66653 14.66653,0 14.66653,0 0,14.66653 0,14.66653 -14.66653,0 -14.66653,0 0,-14.66653 z m 25.14262,0 0,-10.47609 -10.47609,0 -10.47609,0 0,10.47609 0,10.47609 10.47609,0 10.47609,0 0,-10.47609 z m -16.76174,0 0,-6.28565 6.28565,0 6.28566,0 0,6.28565 0,6.28566 -6.28566,0 -6.28565,0 0,-6.28566 z m 67.04698,0 0,-14.66653 14.66652,0 14.66653,0 0,14.66653 0,14.66653 -14.66653,0 -14.66652,0 0,-14.66653 z m 25.14262,0 0,-10.47609 -10.4761,0 -10.47609,0 0,10.47609 0,10.47609 10.47609,0 10.4761,0 0,-10.47609 z m -16.76175,0 0,-6.28565 6.28565,0 6.28566,0 0,6.28565 0,6.28566 -6.28566,0 -6.28565,0 0,-6.28566 z m -50.28524,-8.38087 c 0,-1.99545 0.0998,-2.09522 2.09522,-2.09522 1.99545,0 2.09522,0.0998 2.09522,2.09522 0,1.99545 -0.0998,2.09522 -2.09522,2.09522 -1.99544,0 -2.09522,-0.0998 -2.09522,-2.09522 z m 8.38088,-2.09522 0,-4.19044 2.09522,0 2.09521,0 0,4.19044 0,4.19044 -2.09521,0 -2.09522,0 0,-4.19044 z"
       id="path6336"
       inkscape:connector-curvature="0" />
    <path
       style="fill:none;fill-opacity:1;fill-rule:evenodd;stroke:#000000;stroke-width:1;stroke-linecap:butt;stroke-linejoin:miter;stroke-miterlimit:4;stroke-dasharray:1,1;stroke-dashoffset:0;stroke-opacity:1"
       d="m 355.18563,784.83454 144.88233,0 0,192.64576"
       id="path4175"
       inkscape:connector-curvature="0" />
    <circle
       style="opacity:1;fill:none;fill-opacity:1;stroke:#000000;stroke-width:1;stroke-linecap:round;stroke-linejoin:miter;stroke-miterlimit:4;stroke-dasharray:none;stroke-dashoffset:0;stroke-opacity:1"
       id="path4200"
       cx="500.08923"
       cy="783.04034"
       r="7.6452456" />
    <text
       sodipodi:linespacing="125%"
       id="text4202"
       y="844.73712"
       x="617.6897"
       style="font-style:normal;font-variant:normal;font-weight:normal;font-stretch:normal;font-size:22.24670601px;line-height:125%;font-family:'Helvetica Neue';-inkscape-font-specification:'Helvetica Neue, Normal';text-align:start;letter-spacing:0px;word-spacing:0px;writing-mode:lr-tb;text-anchor:start;fill:#333333;fill-opacity:1;stroke:none;stroke-width:1;stroke-linecap:butt;stroke-linejoin:miter;stroke-miterlimit:4;stroke-dasharray:none;stroke-opacity:1"
       xml:space="preserve"><tspan
         sodipodi:role="line"
         id="tspan4206"
         x="617.6897"
         y="844.73712">size</tspan></text>
    <rect
       style="opacity:1;fill:#777777;fill-opacity:1;stroke:none;stroke-width:1;stroke-linecap:round;stroke-linejoin:miter;stroke-miterlimit:4;stroke-dasharray:none;stroke-dashoffset:0;stroke-opacity:1"
       id="rect5746"
       width="33.282539"
       height="23.773245"
       x="337.99515"
       y="901.23206" />
    <text
       sodipodi:linespacing="125%"
       id="text4169"
       y="361.16821"
       x="-918.84827"
       style="font-style:normal;font-variant:normal;font-weight:normal;font-stretch:normal;font-size:22.24625206px;line-height:125%;font-family:'Helvetica Neue';-inkscape-font-specification:'Helvetica Neue, Normal';text-align:start;letter-spacing:0px;word-spacing:0px;writing-mode:lr-tb;text-anchor:start;fill:#777777;fill-opacity:1;stroke:#333333;stroke-width:1;stroke-linecap:butt;stroke-linejoin:miter;stroke-miterlimit:4;stroke-dasharray:none;stroke-opacity:1;"
       xml:space="preserve"
       transform="matrix(0,-1,1,0,0,0)"><tspan
         y="361.16821"
         x="-918.84827"
         sodipodi:role="line"
         id="tspan5820">y</tspan></text>
    <rect
       y="-289.46976"
       x="956.04681"
       height="23.773245"
       width="33.282539"
       id="rect5831"
       style="opacity:1;fill:#777777;fill-opacity:1;stroke:none;stroke-width:1;stroke-linecap:round;stroke-linejoin:miter;stroke-miterlimit:4;stroke-dasharray:none;stroke-dashoffset:0;stroke-opacity:1"
       transform="matrix(-0.0141328,0.99990013,-0.99990013,-0.0141328,0,0)" />
    <text
       transform="matrix(0.99990013,0.0141328,-0.0141328,0.99990013,0,0)"
       xml:space="preserve"
       style="font-style:normal;font-variant:normal;font-weight:normal;font-stretch:normal;font-size:22.24625015px;line-height:125%;font-family:'Helvetica Neue';-inkscape-font-specification:'Helvetica Neue, Normal';text-align:start;letter-spacing:0px;word-spacing:0px;writing-mode:lr-tb;text-anchor:start;fill:#000000;fill-opacity:1;stroke:#777777;stroke-width:1;stroke-linecap:butt;stroke-linejoin:miter;stroke-miterlimit:4;stroke-dasharray:none;stroke-opacity:1"
       x="271.85355"
       y="979.21985"
       id="text5833"
       sodipodi:linespacing="125%"><tspan
         y="979.21985"
         x="271.85355"
         sodipodi:role="line"
         id="tspan5840">x</tspan></text>
  </g>
</svg>
